<svg xmlns="http://www.w3.org/2000/svg" viewBox="0 0 447.32 451.91"><defs><style>.cls-1{fill:#604695;}</style></defs><g id="ÖSSZES"><polygon points="198.18 313.18 235.32 295.57 223.22 275.29 198.18 313.18"/><path d="M256,313.62h-7.41a3.24,3.24,0,0,1-2.61-1.32c-8.22-11.06-18.66-25.57-23.34-32.09-4.67,6.52-15.11,21-23.33,32.09a3.24,3.24,0,0,1-2.61,1.32c-42.07.15-58.42-.66-63.15-9.71s4.57-22.56,25.08-51.89c3.39-4.84,7.14-10.21,11.15-16-24.69-6.26-36.58-14.1-36.33-23.89.44-17.44,41.18-30.71,59.23-34.49,1.4-23.19,16.3-35.23,30.93-35.23h.29c13.72.15,28.39,11.26,28.81,35.25,18.1,3.81,58.69,17.06,59.13,34.47.25,9.79-11.64,17.63-36.32,23.89,4,5.81,7.76,11.18,11.14,16,20.52,29.33,29.88,42.72,25.08,51.89C307.26,312.4,292.57,313.62,256,313.62Zm-5.75-6.54c27.14.08,52.43.05,55.7-6.21,2.95-5.65-8-21.35-24.65-45.11-4.14-5.93-8.83-12.64-13.86-20a3.28,3.28,0,0,1,2-5c32.65-7.56,36-15.45,35.92-18.49-.28-10.84-33.9-24.68-56.44-28.72a3.26,3.26,0,0,1-2.69-3.23v-1.26c.13-20.65-11.13-30-22.35-30.13h-.22c-12,0-24.18,10.76-24.5,31.46a3.25,3.25,0,0,1-2.69,3.16c-22.54,4-56.16,17.88-56.44,28.72-.07,3,3.27,10.93,35.92,18.49a3.3,3.3,0,0,1,2.31,2,3.27,3.27,0,0,1-.36,3c-5,7.33-9.72,14-13.86,20-16.62,23.76-27.6,39.46-24.65,45.11,3.28,6.26,28.55,6.3,55.7,6.21,10.72-14.47,24.59-33.9,24.74-34.1a3.26,3.26,0,0,1,2.66-1.37h.41a3.26,3.26,0,0,1,2.66,1.37C225.62,273.18,239.49,292.61,250.21,307.08Z"/><path class="cls-1" d="M222.22,181.32a10,10,0,0,1-10-10,2.62,2.62,0,1,1,5.23,0,4.73,4.73,0,1,0,9.46,0,2.62,2.62,0,1,1,5.23,0A10,10,0,0,1,222.22,181.32Z"/></g></svg>