<svg xmlns="http://www.w3.org/2000/svg" viewBox="0 0 447.32 451.91"><defs><style>.cls-1,.cls-3{fill:none;}.cls-1,.cls-2{stroke:#1d1d1b;stroke-linejoin:round;}.cls-1,.cls-2,.cls-3{stroke-linecap:round;stroke-width:6.48px;}.cls-2{fill:#1d1d1b;}.cls-3{stroke:#f6a621;stroke-miterlimit:10;}</style></defs><g id="ÖSSZES"><path class="cls-1" d="M122.25,107.22c2.7,13.29,11.26,27,32.66,27.44a5.13,5.13,0,0,1,5,4.83c2.34,42.3-15,64.18-8.25,96.3,10.54,49.78,63.14,60.7,77,95.93"/><path class="cls-1" d="M133.29,96.71c12.4.07,21.65-.17,27.47-4.74,9.66-7.61,25-11.91,39-5,25.86,12.7,15.77,35.53,19.07,75.67s41,70.9,60.11,102.88c17.77,29.8,25.58,71.24,22.72,101.23"/><path class="cls-1" d="M191.68,100.32c-7.05,10.14-11.64,16.39-14.55,22.83-4.8,10.58-2.53,35.12,5.7,36.47,12.16,2,34.18-34.54,32.68-56.1"/><path class="cls-2" d="M133.29,96.71s-3.63,9.24-11,10.51a53.13,53.13,0,0,1-1-10.54C125.52,96.65,129.55,96.7,133.29,96.71Z"/><path class="cls-1" d="M188.75,255.58c2.44,25.86-4.12,35.95-12.17,60.65-8.59,26.36-19.05,60.24-19.05,60.24-5.71-2.65-8.78,1.25-10.3,3.59"/><path class="cls-1" d="M279.27,315.76c-9-16.79-32.59-22-41.27-15.63-12,8.77-18.2,35.07,12.24,75.76"/><path class="cls-1" d="M356.32,302.56c-7.06,34.14-39.48,66.38-79,73.33-28.63,5-46.75-1.55-56.45-1.22s-11,2.87-15.22,7.06"/><path class="cls-1" d="M235.28,351.44c-16.22.05-22.53-4.58-29.59-3-3,.69-5.54,3.45-7.23,6.07"/><path class="cls-1" d="M165.4,265.73c4.34,14.33-18.17,103.43-18.17,103.43-4.59-3.09-8.48,1.35-9.47,3.09"/><path class="cls-3" d="M165.71,166.15c14.89,4.38,31.61,5.29,46-.49"/></g></svg>