<svg xmlns="http://www.w3.org/2000/svg" viewBox="0 0 447.32 451.91"><defs><style>.cls-1{fill:#f2f2f2;}.cls-2,.cls-3{fill:none;stroke-linecap:round;stroke-linejoin:round;}.cls-2,.cls-4{stroke:#000;}.cls-2,.cls-3,.cls-4{stroke-width:6.22px;}.cls-3{stroke:#5f4796;}.cls-4{stroke-miterlimit:10;}</style></defs><g id="ÖSSZES"><circle class="cls-1" cx="224.1" cy="228.47" r="217.28"/><path class="cls-2" d="M316.93,230.63A166.29,166.29,0,0,0,336,208.42l.19-.27"/><path class="cls-2" d="M211.61,173.67c-12-41.89,16.59-69.37,27.23-73.46,11.86-4.56,27.61,1,33.54,11.12,0,0,12.8-41.84,47.85-25.83a58.76,58.76,0,0,1,26.9,24.77"/><path class="cls-2" d="M234.85,216.11c15.67,20.13,32.7,34.27,39.64,49.37,7.83-6.16,20.22-14.81,33-26.07"/><path class="cls-2" d="M211.62,173.66c5.92-6.43,21.38-19.87,25-14.63s-17.57,20.06-19.26,28.1l9.22,17.43c3.69-9.59,22.11-35.21,28.47-29.07s-20.54,29.64-20.16,40.62"/><path class="cls-2" d="M347.13,110.27c-27.51-10.16-43-4.27-40.83,3.82,3.29,12.43,28.33-4,47.78,13.87"/><path class="cls-2" d="M352.63,174.55c1.27-18.22-32.5-44.16-34-33.52C317.48,148.7,344.16,157.49,352.63,174.55Z"/><path class="cls-2" d="M341.18,200.59c-3.21-15.05-27.09-31.16-31.54-26s32.93,24.86,26.4,33.87"/><line class="cls-2" x1="341.18" y1="200.59" x2="341.18" y2="200.59"/><path class="cls-2" d="M354.06,127.94h0c2.93,12,3.13,25.68.05,40.55-.43,2-.91,4.05-1.47,6v0h0c-2.9,10.39-5.85,17.29-11.46,26"/><path class="cls-2" d="M316.93,230.63c-2.42-10-18.51-34.18-23.17-31.43s18.07,34,13.72,40.21"/><path class="cls-2" d="M114.52,232.47l0,.15c-1.11,4.08-2.36,8.63-3.85,13.8-.39,1.35-.82,2.67-1.3,4"/><path class="cls-2" d="M179.31,274.41c-3.09,2.28-6.62,4.94-10.4,7.58"/><path class="cls-2" d="M121.53,210.51a96.89,96.89,0,0,0-3.73,10.43"/><path class="cls-2" d="M127.87,199.19c1.54-2.19,3.3-4.45,5.35-6.87,1.13-1.31,2.26-2.57,3.41-3.75,6.74-2.6,22.68-1,27.13-2.49s7-9.43-12.75-8.81c18.83-10.53,36.21-4.77,40.66,5.8,28.2,8.87,36.09,35.1,29.1,55.35a47.24,47.24,0,0,1-2.2,5.33h0"/><path class="cls-2" d="M206.18,258.15c-4.29,3.05-9,5.38-13.83,8"/><path class="cls-2" d="M131.7,295.07a44.52,44.52,0,0,0,10.78-.27,49.94,49.94,0,0,0,15.5-5.9"/><path class="cls-2" d="M151,177.27c19.74-.62,17.19,7.32,12.75,8.81s-20.39-.11-27.13,2.49"/><path class="cls-2" d="M127.87,199.19c8.47-1.27,18.76-2.72,19.62,1.94s-13.85,3.75-26,9.38"/><path class="cls-2" d="M117.79,220.94c7.86-2.89,14.35-3.18,15.27.71s-17.71,7.77-18.59,11"/><path class="cls-2" d="M109.32,250.38c6.06-8,16.06-7.92,16.49-4.12s-11.71,9.95-23.41,18.32c-10,7.78-12,17-13,22.71,8.65.87,19.34,3.87,29.73,5.93"/><path class="cls-2" d="M119.17,293.22c-.09-5.94,4.61-16.84,9.65-15.25,4.34,1.36,2.43,13.79,2.88,17.11"/><path class="cls-2" d="M158,288.9c.7-10.93-1.37-21.35,4.35-24.31s6.58,17.4,6.58,17.4"/><path class="cls-2" d="M179.31,274.41c2.87-17.56-3.64-25.5,4.68-30.64,5.75-3.56,8.36,22.35,8.36,22.35"/><path class="cls-2" d="M206.18,258.15c-5.9-21-4.24-34,2.54-35.13,5.64-1,9.84,20.75,9.84,20.75"/><path class="cls-3" d="M183.33,195.67c-14.86,6.93-32.47,22.87-42.28,47.76-9.87,25.06-22.31,17.6-33.42,34.38"/><path class="cls-3" d="M187.9,230.63c.63-17.24,1.1-28.1-4.57-35-2.47-3-22.77,2.07-22.77,2.07"/><path class="cls-3" d="M143.63,215.1c9.85-6,20.46-6.64,22.2-6.95,0,0,7.93,10.6-.43,37.21"/><path class="cls-3" d="M144.07,267.59c7.69-18.68,6.24-33.1,4.13-37.52s-19.06,5.13-19.06,5.13"/><path class="cls-3" d="M250.78,217.83c2.38-7.14,16.73-43.28,33.64-39.59,13.15-4.66,28.72,19.16,28.72,19.16"/><path class="cls-3" d="M248.4,164.9c4-5.13,21.23-19.05,35.29-13.34,6.9-1.35,16.58-1.07,23.79,5.56"/><path class="cls-3" d="M227.28,151.56c13.18-13.81,49.42-21.24,53.65-17.4,6.38-6.56,21.94-9.36,36-4"/><path class="cls-3" d="M233.8,127.76c10.47-8.12,25.31-11.34,41.12-4.15,12,7.26,11.22,61.42,5.4,109"/><path class="cls-3" d="M310.17,94.55c-14.61,4-27.64,14.67-32.25,28.85"/><path class="cls-2" d="M227.28,285.61c8.68-15,19.27-33.69,21.12-53.5"/><path class="cls-2" d="M203.07,243.43c7.48,12.73,25.27,27,24.21,48.66s-1.46,30.82-1.46,30.82"/><ellipse class="cls-4" cx="226.26" cy="315.68" rx="21.95" ry="9.05"/><path class="cls-2" d="M248,314.42c21.94,50.58-5.1,56.92-21.74,56.92s-45.51-3.64-21.95-56.92"/></g></svg>