<svg xmlns="http://www.w3.org/2000/svg" viewBox="0 0 447.32 451.91"><defs><style>.cls-1{fill:#f2f2f2;}.cls-2{fill:#604695;}</style></defs><g id="ÖSSZES"><circle class="cls-1" cx="222.65" cy="228.04" r="217.28"/><path d="M245.77,228.4c-4.54-10.2-8.46-19-8.5-27.45A59.84,59.84,0,0,1,239,188.37a86.29,86.29,0,0,0,2.34-18.74l-.05-3.6H241a24,24,0,0,0-47.66,3.6,85.73,85.73,0,0,0,2.33,18.74A58.39,58.39,0,0,1,197.4,201c0,8.43-4,17.25-8.5,27.45-7.9,17.78-17.74,39.91-10.74,70.69a15.48,15.48,0,0,0,8.89,10.73,76.3,76.3,0,0,0,30.42,6.47,75.12,75.12,0,0,0,30.23-6.47,15.46,15.46,0,0,0,8.8-10.69C263.52,268.34,253.68,246.19,245.77,228.4Zm3.7,69.13a8.21,8.21,0,0,1-4.67,5.67C227,311,208,311,189.93,303.19a8.2,8.2,0,0,1-4.73-5.7c-6.48-28.44,2.44-48.47,10.3-66.15,4.67-10.5,9.07-20.42,9.12-30.37a64.48,64.48,0,0,0-1.88-14.08,79,79,0,0,1-2.18-17.26,16.76,16.76,0,0,1,33.51,0l0,1.72a82.35,82.35,0,0,1-2.16,15.54A64.48,64.48,0,0,0,230.06,201c0,9.95,4.45,19.87,9.12,30.37C247,249,256,269.07,249.47,297.53Z"/><path class="cls-2" d="M211.09,243.94c-7.55,14.67-11,36.57-8,50.94a3.62,3.62,0,0,1-2.8,4.28,3.78,3.78,0,0,1-.74.07,3.61,3.61,0,0,1-3.53-2.88c-3.32-16.07.33-39.5,8.68-55.7a3.6,3.6,0,1,1,6.41,3.29Z"/></g></svg>