<svg xmlns="http://www.w3.org/2000/svg" viewBox="0 0 447.32 451.91"><defs><style>.cls-1{fill:#f59e1e;}.cls-2{fill:#f6a621;}</style></defs><g id="ÖSSZES"><path d="M184,280.51v.11h0A.52.52,0,0,1,184,280.51Z"/><path d="M269.9,281.31a12.34,12.34,0,0,0-1.49-4l1,.63Z"/><path d="M137.88,323c-.36-.53-.68-1.08-1-1.66a4,4,0,0,0,1.46,2.19A3.44,3.44,0,0,1,137.88,323Z"/><path d="M142.25,319.35l-.07,0c-.06-.14-.11-.26-.18-.39A4.41,4.41,0,0,0,142.25,319.35Z"/><path class="cls-1" d="M235.85,340.13a2.58,2.58,0,0,1-1.18-4.87l50.09-25.57a2.58,2.58,0,0,1,2.35,4.59L237,339.85A2.54,2.54,0,0,1,235.85,340.13Z"/><path class="cls-2" d="M264.05,366.43l-2.53,1.23-2.59,1.25-4,1.93-2.59,1.24-2.6,1.26a8.46,8.46,0,0,0-1.71-4.19,3.23,3.23,0,0,1,.73-5.12h0l6.73-3.6a4.63,4.63,0,0,1,5.14.46A11.76,11.76,0,0,1,264.05,366.43Z"/><path class="cls-2" d="M265.58,383.77V384a3.07,3.07,0,0,1-2,2.9c-1.43.51-2.72.06-4.64-1.83l-2.4,3.21a3.63,3.63,0,0,1-2.78,1.5,4,4,0,0,1-.49,0,3,3,0,0,1-2.37-2.14,25.65,25.65,0,0,1-.44-5.45c0-.86-.05-1.84-.1-2.89l2.77-1.33,2.72-1.31,4.06-2,2.7-1.31,2.69-1.29A67.46,67.46,0,0,1,265.58,383.77Z"/><path d="M184,280.62a10.44,10.44,0,0,0-.31,2.43,2,2,0,0,1,0-.23l.3-2.2v-.11A.52.52,0,0,0,184,280.62Zm11.38,17.12a40.34,40.34,0,0,0,4.59,2Z"/><path d="M325.8,336l-5-3.08a5.69,5.69,0,0,1-.19-.86c-.66-4.08,1.72-9.3,5.29-11.65l.29-.22A4.13,4.13,0,0,0,328,317a4.26,4.26,0,0,0-2-3.87l-56.6-35.15.46,3.38a12,12,0,0,0-1.48-4l1,.63-16.58-121c8.91-2.58,15-6.63,15-12.08a7.68,7.68,0,0,0-1.75-4.79l0,0L228.81,86.47V80.21l15.07-7,.17-.07a2.6,2.6,0,0,0,.36-.21,1.08,1.08,0,0,0,.24-.18c.06,0,.12-.1.18-.15a1.76,1.76,0,0,0,.24-.29,3.46,3.46,0,0,0,.22-.31,2.56,2.56,0,0,0,.27-.64,1.84,1.84,0,0,0,.05-.25,1.92,1.92,0,0,0,.06-.53c0-.12,0-.23,0-.36s0-.21-.06-.32a1.72,1.72,0,0,0-.07-.21.82.82,0,0,0-.1-.26l0-.07a2,2,0,0,0-.16-.29,2.88,2.88,0,0,0-.3-.39,1.06,1.06,0,0,0-.15-.15,1.3,1.3,0,0,0-.18-.15,2.75,2.75,0,0,0-.33-.23l-16.85-9.77a3.08,3.08,0,0,0-1.07-.36L226,58h0l-.35,0a4.75,4.75,0,0,0-.57.14l-.17.07-.08,0-.21.11a3,3,0,0,0-.59.44,1.61,1.61,0,0,0-.24.28,3.62,3.62,0,0,0-.22.32c0,.1-.11.2-.16.31a3.25,3.25,0,0,0-.2.74c0,.12,0,.23,0,.36V86.71l-37,52.94,0,0a7.82,7.82,0,0,0-2.06,5.15c0,5.84,7,10.08,17,12.62L184.92,274,143.19,293.5l-.16.07c-3.75,1.55-6.48,4.78-7.88,9.34a25.5,25.5,0,0,0,1.73,18.39,17.14,17.14,0,0,0,1,1.67,3.37,3.37,0,0,0,.46.53l.33.24,95,61.39a4.24,4.24,0,0,0,2.25.64,4.46,4.46,0,0,0,1.84-.4l12.59-6.08a41.64,41.64,0,0,0-.6-6l-12.94,6.23h0a20.17,20.17,0,0,1-1-13.53c.59-2,1.87-4.56,4.48-5.72h0a5.26,5.26,0,0,0,1-.31l74.63-34.91a16.74,16.74,0,0,0-.75,7.8,12.28,12.28,0,0,0,.78,2.75,2.86,2.86,0,0,0,.2.48,10.78,10.78,0,0,0,2.95,3.8l-55,26.5a29.92,29.92,0,0,1,1.23,5.66l60-28.95a4.08,4.08,0,0,0,.49-7.19Zm-97-270.28,8,4.62-8,3.72Zm-39.06,79.15a2,2,0,0,1,.3-1,4.2,4.2,0,0,1,.73-.92h0l6.72-9.64h0L226.08,92.4l28.48,40.87,6.8,9.76h0a3.79,3.79,0,0,1,.58.77h0a2,2,0,0,1,.31,1c0,3.9-14.47,9.78-36.27,9.78S189.75,148.72,189.75,144.82ZM207,158.67a112.81,112.81,0,0,0,19,1.56,110.85,110.85,0,0,0,21-1.93l15.46,112.88.93,6.76.41,3,.21,1.55a1,1,0,0,1,0,.17,0,0,0,0,0,0,0,5.78,5.78,0,0,1,0,.58c0,7-15.29,14.83-37.24,14.83a79.8,79.8,0,0,1-18.6-2.08,25.64,25.64,0,0,0,11.37-15.59,62.44,62.44,0,0,1,4.69-11.23,19.13,19.13,0,0,0,12.07-.26,15.4,15.4,0,0,0,6.77-5,12.66,12.66,0,0,0,1.49-2.47,2.8,2.8,0,0,0-1.41-3.71c-5.39-2.42-10.26-2.68-14.48-.78a18.31,18.31,0,0,0-6.82,5.66,30.29,30.29,0,0,0-2,3c-.17-1-.37-1.89-.63-2.86-.31-1.35-.72-2.74-1.19-4.13l0-.11c-.32-.93-.6-1.83-.85-2.7a39.93,39.93,0,0,1-1.68-15.93c11.37,1.56,17.31-7.56,18.93-13a2.82,2.82,0,0,0-1.55-3.37c-5.94-2.67-12.18-1.84-16.65,2.23-4,3.65-6.23,9.22-6.54,16a16.44,16.44,0,0,0-5.47-4.05,13.15,13.15,0,0,0-8.12-.82Zm21,105.54a12.08,12.08,0,0,1,2.2-1.71,9.34,9.34,0,0,1,.89-.46,9.74,9.74,0,0,1,6.52-.39,9.93,9.93,0,0,1-1.58,1.22A11.6,11.6,0,0,1,228,264.21Zm-11-29.85a12.88,12.88,0,0,1,3.05-4.47,8.8,8.8,0,0,1,8-2.11C226.49,230.67,223.2,234.87,217,234.36Zm-15,8.46a12,12,0,0,1,4.5,3.78c-2.11.45-5.69.79-8.08-.69a5.92,5.92,0,0,1-2.44-3.22A8.18,8.18,0,0,1,202,242.82ZM189.87,281.7l.58-4.09.9-6.51,0-.14,2.93-21.08a11.93,11.93,0,0,0,1.15.82c5.82,3.59,13.69,1,14,.92h0a51.08,51.08,0,0,1,2.37,6c.28.82.55,1.67.81,2.56l0,.11c.35,1,.66,2.06.93,3.08a37.3,37.3,0,0,1,1.1,5.88,27.45,27.45,0,0,1-.48,9.5,20.89,20.89,0,0,1-.78,2.51,18.5,18.5,0,0,1-1.08,2.4,21.78,21.78,0,0,1-11.77,9.89c-6.83-2.82-10.88-6.57-11-10.13a1,1,0,0,1,0-.17A4.85,4.85,0,0,1,189.87,281.7Zm40.52,82.68a25.08,25.08,0,0,0-.56,11.58l-87.58-56.6-.07-.05c-.06-.13-.11-.26-.18-.38a19.89,19.89,0,0,1-1.48-14.37,11.21,11.21,0,0,1,1.87-3.67l.2.15,91.51,56.83A15.84,15.84,0,0,0,230.39,364.38Zm9.11-9.79-91.79-57,36.28-17a.5.5,0,0,1,0-.12v.12l-.3,2.19a1,1,0,0,0,0,.24,0,0,0,0,0,0,0v.41s0,.08,0,.11c.2,5.59,4.54,10.51,11.68,14.12l4.59,2c7.28,2.72,16.57,4.31,26.92,4.31,23.47,0,41.44-8.11,43.07-19.14l51,31.65Z"/><path class="cls-2" d="M265.28,372.09l-2.69,1.29-2.7,1.31-4.06,2L253.11,378l-2.77,1.33a41.64,41.64,0,0,0-.6-6l2.6-1.26,2.59-1.24,4-1.93,2.59-1.25,2.53-1.23A29.92,29.92,0,0,1,265.28,372.09Z"/><path d="M189.88,281.69l-.24,1.71a.91.91,0,0,1,0-.17A5,5,0,0,1,189.88,281.69Z"/><path d="M269.9,281.31a12.34,12.34,0,0,0-1.49-4l1,.63Z"/><path d="M79.26,158.74a1.79,1.79,0,0,1-.3-.36l-.29-.4A4.13,4.13,0,0,1,79.26,158.74Z"/><path d="M233.16,173.79a9.36,9.36,0,0,0-6.78-3.1,9,9,0,0,0-6.84,2.74c-5.41,5.49-5,17.51-5,18.86a2.82,2.82,0,0,0,2.76,2.69l17.81.28h0a2.82,2.82,0,0,0,2.81-2.69C238.08,191.27,238.45,179.51,233.16,173.79Zm-13,15.61c.17-4.22,1.08-9.72,3.34-12a3.35,3.35,0,0,1,2.67-1.08,3.77,3.77,0,0,1,2.82,1.32c2.43,2.61,3.19,8.21,3.35,12Z"/><path d="M213.55,281l-.07.28a17.42,17.42,0,0,0,.78-2.51C214,279.48,213.77,280.22,213.55,281Z"/></g></svg>