<svg xmlns="http://www.w3.org/2000/svg" viewBox="0 0 447.32 451.91"><defs><style>.cls-1{fill:#f2f2f2;}.cls-2{fill:#f59e1e;}.cls-3{fill:#f6a621;}.cls-4{fill:none;}.cls-5{fill:#fff;}</style></defs><g id="ÖSSZES"><circle class="cls-1" cx="223.12" cy="225.96" r="217.28"/><path d="M176.05,284.67v.11h0A.61.61,0,0,1,176.05,284.67Z"/><path d="M261.93,285.47a12.12,12.12,0,0,0-1.49-4l1,.63Z"/><path d="M129.91,327.13a19.4,19.4,0,0,1-1-1.67,4.06,4.06,0,0,0,1.46,2.2A3.37,3.37,0,0,1,129.91,327.13Z"/><path d="M134.28,323.52l-.07,0c-.06-.13-.11-.26-.18-.38C134.11,323.23,134.19,323.38,134.28,323.52Z"/><path class="cls-2" d="M279.14,318.45,229,344a2.43,2.43,0,0,1-1.16.29,2.58,2.58,0,0,1-1.18-4.88l50.09-25.56a2.58,2.58,0,1,1,2.35,4.59Z"/><path class="cls-3" d="M256.08,370.59l-2.53,1.23L251,373.07,247,375l-2.59,1.24-2.6,1.26a8.46,8.46,0,0,0-1.71-4.19,3.23,3.23,0,0,1,.73-5.12h0l6.73-3.6a4.63,4.63,0,0,1,5.14.46A11.76,11.76,0,0,1,256.08,370.59Z"/><path class="cls-3" d="M257.62,387.93v.25a3.07,3.07,0,0,1-2,2.9c-1.43.51-2.72.06-4.64-1.83l-2.4,3.21a3.63,3.63,0,0,1-2.78,1.5,4,4,0,0,1-.49,0,3,3,0,0,1-2.37-2.14,25.65,25.65,0,0,1-.44-5.45c0-.86,0-1.84-.1-2.89l2.77-1.33,2.72-1.31,4.06-2,2.7-1.31,2.69-1.29A67.46,67.46,0,0,1,257.62,387.93Z"/><path d="M187.47,301.93a37,37,0,0,0,4.45,1.91ZM176,284.74h0v-.06A.13.13,0,0,0,176,284.74Zm0,.05a9.53,9.53,0,0,0-.3,2.26.17.17,0,0,1,0-.07l.3-2.19v0A.06.06,0,0,0,176,284.79Zm-.31,2.29v.14a.86.86,0,0,1,0-.16Z"/><path d="M317.83,340.11l-5-3.08a5.69,5.69,0,0,1-.19-.86c-.66-4.08,1.72-9.3,5.29-11.65l.29-.22a4.13,4.13,0,0,0,1.8-3.19,4.26,4.26,0,0,0-2-3.87L261.47,282.1h0l.44,3.2v.18c-.06-.34-.13-.69-.22-1s-.15-.51-.24-.76a11.26,11.26,0,0,0-.63-1.49c-.12-.25-.25-.49-.39-.73l1,.63h0l-16.58-121c8.91-2.58,15-6.63,15-12.08a7.68,7.68,0,0,0-1.75-4.79l0,0L220.84,90.63V84.37l15.07-7,.17-.07a2.6,2.6,0,0,0,.36-.21,1.08,1.08,0,0,0,.24-.18c.06,0,.12-.1.18-.15a1.76,1.76,0,0,0,.24-.29,3.46,3.46,0,0,0,.22-.31,2.56,2.56,0,0,0,.27-.64,1.84,1.84,0,0,0,0-.25,1.92,1.92,0,0,0,.06-.53c0-.12,0-.23,0-.36s0-.21-.06-.32a1.72,1.72,0,0,0-.07-.21.82.82,0,0,0-.1-.26l0-.07a2,2,0,0,0-.16-.29,2.88,2.88,0,0,0-.3-.39,1.06,1.06,0,0,0-.15-.15,1.3,1.3,0,0,0-.18-.15,2.75,2.75,0,0,0-.33-.23l-16.85-9.77a3.08,3.08,0,0,0-1.07-.36l-.31,0h0l-.35,0a4.75,4.75,0,0,0-.57.14l-.17.07-.08,0-.21.11a3,3,0,0,0-.59.44,1.61,1.61,0,0,0-.24.28,3.62,3.62,0,0,0-.22.32c0,.1-.11.2-.16.31a3.25,3.25,0,0,0-.2.74c0,.12,0,.23,0,.36V90.87l-37,52.94,0,0a7.82,7.82,0,0,0-2.06,5.15c0,5.84,7,10.08,17,12.62L177,278.14l-41.73,19.52-.16.07c-3.75,1.55-6.48,4.78-7.88,9.34a25.5,25.5,0,0,0,1.73,18.39,17.14,17.14,0,0,0,1,1.67,3.37,3.37,0,0,0,.46.53l.33.24,95,61.39a4.24,4.24,0,0,0,2.25.64,4.46,4.46,0,0,0,1.84-.4l12.59-6.08a41.64,41.64,0,0,0-.6-5.95l-12.94,6.23h0a20.17,20.17,0,0,1-1-13.53c.59-2,1.87-4.56,4.48-5.72h0a5.26,5.26,0,0,0,1-.31l74.63-34.91a16.74,16.74,0,0,0-.75,7.8,12.28,12.28,0,0,0,.78,2.75,2.86,2.86,0,0,0,.2.48,10.78,10.78,0,0,0,2.95,3.8l-55,26.5a29.92,29.92,0,0,1,1.23,5.66l60-28.95a4.08,4.08,0,0,0,.49-7.19Zm-97-270.28,8,4.62-8,3.72ZM181.78,149a2,2,0,0,1,.3-1,4.2,4.2,0,0,1,.73-.92h0l6.72-9.64h0l28.54-40.84,28.48,40.87,6.8,9.76h0a3.79,3.79,0,0,1,.58.77h0a2,2,0,0,1,.31,1c0,3.9-14.47,9.78-36.27,9.78S181.78,152.88,181.78,149ZM199,162.83a112.81,112.81,0,0,0,19,1.56,110.85,110.85,0,0,0,21-1.93l15.46,112.88.93,6.76.41,3,.21,1.55a1,1,0,0,1,0,.17,0,0,0,0,0,0,0,5.78,5.78,0,0,1,0,.58c0,7-15.29,14.83-37.24,14.83a79.8,79.8,0,0,1-18.6-2.08,25.64,25.64,0,0,0,11.37-15.59,62.44,62.44,0,0,1,4.69-11.23,19.13,19.13,0,0,0,12.07-.26,15.4,15.4,0,0,0,6.77-5,12.66,12.66,0,0,0,1.49-2.47,2.8,2.8,0,0,0-1.41-3.71c-5.39-2.42-10.26-2.68-14.48-.78a18.31,18.31,0,0,0-6.82,5.66,30.29,30.29,0,0,0-2,3c-.17-.95-.37-1.89-.63-2.86-.31-1.35-.72-2.74-1.19-4.13l0-.11c-.32-.93-.6-1.83-.85-2.7A39.93,39.93,0,0,1,207.55,244c11.37,1.56,17.31-7.56,18.93-13a2.82,2.82,0,0,0-1.55-3.37c-5.94-2.67-12.18-1.84-16.65,2.23-4,3.65-6.23,9.22-6.54,16a16.44,16.44,0,0,0-5.47-4,13.15,13.15,0,0,0-8.12-.82Zm21,105.54a12.08,12.08,0,0,1,2.2-1.71,9.34,9.34,0,0,1,.89-.46,9.74,9.74,0,0,1,6.52-.39,9.93,9.93,0,0,1-1.58,1.22A11.6,11.6,0,0,1,220,268.37Zm-11-29.85a12.88,12.88,0,0,1,3.05-4.47,8.8,8.8,0,0,1,8-2.11C218.52,234.83,215.23,239,209,238.52ZM194,247a12,12,0,0,1,4.5,3.78c-2.11.45-5.69.79-8.08-.69a5.92,5.92,0,0,1-2.44-3.22A8.18,8.18,0,0,1,194,247Zm-12.29,39.69s0-.09,0-.13,0-.2.06-.3a2.66,2.66,0,0,1,.1-.38l.58-4.09.9-6.51,0-.14L186.33,254a11.93,11.93,0,0,0,1.15.82c5.82,3.59,13.69,1,14,.92h0a51.08,51.08,0,0,1,2.37,6c.28.82.55,1.67.81,2.56l0,.11c.35,1,.66,2.06.93,3.08a37.3,37.3,0,0,1,1.1,5.88,27.45,27.45,0,0,1-.48,9.5,17.82,17.82,0,0,1-.78,2.51,18.5,18.5,0,0,1-1.08,2.4,21.78,21.78,0,0,1-11.77,9.89c-6.83-2.82-10.88-6.57-11-10.13a1,1,0,0,1,0-.17A4.49,4.49,0,0,1,181.72,286.67Zm40.7,81.87a25.08,25.08,0,0,0-.56,11.58l-87.58-56.6-.07,0c-.06-.13-.11-.26-.18-.38a19.89,19.89,0,0,1-1.48-14.37,11.21,11.21,0,0,1,1.87-3.67l.2.15L226.13,362A15.84,15.84,0,0,0,222.42,368.54Zm9.11-9.79-91.79-57,36.28-17a.06.06,0,0,1,0,0h0v.05l-.3,2.19a.17.17,0,0,0,0,.07h0v.05a.41.41,0,0,0,0,.11,0,0,0,0,0,0,0v.41s0,.08,0,.11c.2,5.59,4.54,10.51,11.68,14.12l.08,0,4.45,1.91.06,0c7.28,2.72,16.57,4.31,26.92,4.31,23.47,0,41.44-8.11,43.07-19.14l51,31.65Z"/><path class="cls-4" d="M254.3,149c0,3.9-14.47,9.78-36.27,9.78s-36.25-5.88-36.25-9.78a2,2,0,0,1,.3-1,4.2,4.2,0,0,1,.73-.92h0l6.72-9.64h0l28.54-40.84,28.48,40.87,6.8,9.76h0a3.79,3.79,0,0,1,.58.77h0A2,2,0,0,1,254.3,149Z"/><path class="cls-4" d="M256.11,286.82a0,0,0,0,1,0,0,1,1,0,0,0,0-.17l-.21-1.55-.41-3-.93-6.76L239.06,162.46a110.85,110.85,0,0,1-21,1.93,112.81,112.81,0,0,1-19-1.56L188.15,241a13.15,13.15,0,0,1,8.12.82,16.44,16.44,0,0,1,5.47,4c.31-6.77,2.52-12.34,6.54-16,4.47-4.07,10.71-4.9,16.65-2.23a2.82,2.82,0,0,1,1.55,3.37c-1.62,5.44-7.56,14.56-18.93,13A39.93,39.93,0,0,0,209.23,260c.25.87.53,1.77.85,2.7l0,.11c.47,1.39.88,2.78,1.19,4.13.26,1,.46,1.91.63,2.86a30.29,30.29,0,0,1,2-3,18.31,18.31,0,0,1,6.82-5.66c4.22-1.9,9.09-1.64,14.48.78a2.8,2.8,0,0,1,1.41,3.71A12.66,12.66,0,0,1,235.2,268a15.4,15.4,0,0,1-6.77,5,19.13,19.13,0,0,1-12.07.26,62.44,62.44,0,0,0-4.69,11.23,25.64,25.64,0,0,1-11.37,15.59,79.8,79.8,0,0,0,18.6,2.08c21.95,0,37.24-7.82,37.24-14.83A5.78,5.78,0,0,0,256.11,286.82ZM230,196.75a2.81,2.81,0,0,1-2.81,2.68h0l-17.81-.28a2.81,2.81,0,0,1-2.76-2.69c-.06-1.35-.45-13.36,5-18.85a9,9,0,0,1,6.84-2.75,9.41,9.41,0,0,1,6.78,3.11C230.48,183.67,230.11,195.43,230,196.75Z"/><path class="cls-5" d="M198.51,250.76c-2.11.45-5.69.79-8.08-.69a5.92,5.92,0,0,1-2.44-3.22,8.18,8.18,0,0,1,6,.13A12,12,0,0,1,198.51,250.76Z"/><path class="cls-5" d="M220,231.94c-1.51,2.89-4.8,7.09-11,6.58a12.88,12.88,0,0,1,3.05-4.47A8.8,8.8,0,0,1,220,231.94Z"/><path class="cls-3" d="M257.32,376.25l-2.69,1.29-2.7,1.31-4.06,2-2.72,1.31-2.77,1.33a41.64,41.64,0,0,0-.6-5.95l2.6-1.26L247,375l4-1.93,2.59-1.25,2.53-1.23A29.92,29.92,0,0,1,257.32,376.25Z"/><path d="M181.91,285.86l-.24,1.71a1,1,0,0,1,0-.17,4.49,4.49,0,0,1,.06-.73s0-.09,0-.13,0-.2.06-.3S181.87,286,181.91,285.86Z"/><path d="M261.93,285.47a12.12,12.12,0,0,0-1.49-4l1,.63Z"/><path d="M71.29,162.91a2.6,2.6,0,0,1-.3-.36l-.28-.41A3.45,3.45,0,0,1,71.29,162.91Z"/><path d="M225.19,178a9.41,9.41,0,0,0-6.78-3.11,9,9,0,0,0-6.84,2.75c-5.41,5.49-5,17.5-5,18.85a2.81,2.81,0,0,0,2.76,2.69l17.81.28h0a2.81,2.81,0,0,0,2.81-2.68C230.11,195.43,230.48,183.67,225.19,178Zm-13,15.6c.17-4.22,1.08-9.72,3.34-12a3.38,3.38,0,0,1,2.67-1.08,3.81,3.81,0,0,1,2.82,1.32c2.43,2.61,3.19,8.21,3.35,12Z"/><path class="cls-5" d="M224.41,193.75l-12.18-.19c.17-4.22,1.08-9.72,3.34-12a3.38,3.38,0,0,1,2.67-1.08,3.81,3.81,0,0,1,2.82,1.32C223.49,184.39,224.25,190,224.41,193.75Z"/><path d="M205.58,285.13l-.07.28a17.82,17.82,0,0,0,.78-2.51C206,283.64,205.8,284.38,205.58,285.13Z"/></g></svg>