<svg xmlns="http://www.w3.org/2000/svg" viewBox="0 0 447.32 451.91"><defs><style>.cls-1{fill:#f2f2f2;}.cls-2{fill:none;}.cls-3{fill:#f2f2f2;}.cls-4{fill:#604695;}</style></defs><g id="ÖSSZES"><path class="cls-1" d="M114.63,228.65c0,7.49-45.8,7.24-55.59,4.19-11.09-3.46,2-23.09,18.85-23.09C95.79,209.74,114.61,219.4,114.63,228.65Z"/><path class="cls-1" d="M224.69,13.7C104.69,13.7,7.41,111,7.41,231s97.28,217.28,217.28,217.28S442,351,442,231,344.69,13.7,224.69,13.7Zm2.88,265.17a40.43,40.43,0,0,1-40.35-38.93c11.36-2.17,23.63-3.13,33.6-.74a6.77,6.77,0,0,0,12,3.51l33,8.55A40.46,40.46,0,0,1,227.57,278.87Zm0-80.77a40.13,40.13,0,0,1,20.86,5.82l-19.57,27.91a6.88,6.88,0,0,0-1.29-.13,6.79,6.79,0,0,0-5,2.23c-10.63-2.67-23.33-1.9-35.14.23A40.45,40.45,0,0,1,227.57,198.1Zm6.2,37.65a6.51,6.51,0,0,0-.39-.74L253,207.1a40.33,40.33,0,0,1,14.91,28.81ZM105.33,268.58c0-.62.07-1.24.07-1.86a27.3,27.3,0,1,0-54.59,0q0,1.29.12,2.55c-7-1.36-9.7-7.33-10.64-12.44-3.23-17.44,9-44.82,27.87-51.91,14.79-5.56,30.8.48,41.63,6.52C132.28,224,149.88,246,151.64,255a6.05,6.05,0,0,1-1.38,5.51C144.36,267.37,123.65,269.17,105.33,268.58Z"/><path d="M378.43,192.57a45.72,45.72,0,0,0-13.11,1.91l-11.06-30.29c4.06-1.31,7.43-.91,9.28,1.19a2.77,2.77,0,0,0,4.15-3.66c-3.9-4.42-10.67-5-18.1-1.63l-2.32,1.06L352,174.09l-.12-.08-44.29,62.93A12.26,12.26,0,0,0,303,236c-.26,0-.51,0-.77,0l-3.78,0L264.77,178H274a2.77,2.77,0,0,0,0-5.53H250.43a2.77,2.77,0,0,0,0,5.53h7.95l3.72,6.42-10.49,14.95a45.89,45.89,0,0,0-69.84,35.91,153.49,153.49,0,0,0-28.74,9.2c-7.27-12.19-23-28.06-40.55-37.88-17-9.48-33-11.86-46.27-6.87-21.81,8.2-35,38.48-31.36,58.09C36.75,268.09,43,274.24,52.1,275a27.29,27.29,0,0,0,52.28-.93c15.85.59,41.6-.11,50.07-9.94A11.64,11.64,0,0,0,157.07,254a22.64,22.64,0,0,0-1.49-4.55,156.39,156.39,0,0,1,26.15-8.31,45.91,45.91,0,0,0,89.51,11.55l28.59,7.4h0a11.94,11.94,0,0,0,3.13.42,12.2,12.2,0,0,0,9.1-20.34l42.13-59.88,5.89,16.14a45.89,45.89,0,1,0,18.31-3.82ZM78.1,288.48a21.77,21.77,0,1,1,21.77-21.76A21.78,21.78,0,0,1,78.1,288.48Zm72.16-28c-5.9,6.84-26.61,8.64-44.93,8.05,0-.62.07-1.24.07-1.86a27.3,27.3,0,1,0-54.59,0q0,1.29.12,2.55c-7-1.36-9.7-7.33-10.64-12.44-3.23-17.44,9-44.82,27.87-51.91,14.79-5.56,30.8.48,41.63,6.52C132.28,224,149.88,246,151.64,255A6.05,6.05,0,0,1,150.26,260.53Zm117-14.63-17.56-4.54,18.13.09A40.68,40.68,0,0,1,267.26,245.9Zm-33.49-10.15a6.74,6.74,0,0,1-.91,7l33,8.55a40.37,40.37,0,0,1-78.65-11.32c11.36-2.17,23.63-3.13,33.6-.74q0-.34,0-.72a6.76,6.76,0,0,1,1.76-4.55c-10.63-2.67-23.33-1.9-35.14.23a40.37,40.37,0,0,1,61-30.24l-19.57,27.91a6.75,6.75,0,0,1,4.52,3.18L253,207.1a40.33,40.33,0,0,1,14.91,28.81Zm22.36-33.18,9-12.87L292,236l-18.63-.09A45.89,45.89,0,0,0,256.13,202.57Zm35.3,49.59-18.8-4.87a46.28,46.28,0,0,0,.75-5.82l19.4.1a12.16,12.16,0,0,0-2,6.69A12.32,12.32,0,0,0,291.43,252.16Zm87,26.71A40.38,40.38,0,0,1,362,201.59l11.69,32a6.77,6.77,0,0,1,4.72-1.92l.48,0-11.69-32a40.38,40.38,0,1,1,11.21,79.18Z"/><path class="cls-1" d="M290.78,248.26a12.32,12.32,0,0,0,.65,3.9l-18.8-4.87a46.28,46.28,0,0,0,.75-5.82l19.4.1A12.16,12.16,0,0,0,290.78,248.26Z"/><path class="cls-1" d="M267.86,235.91l-34.09-.16a6.51,6.51,0,0,0-.39-.74L253,207.1A40.33,40.33,0,0,1,267.86,235.91Z"/><path class="cls-1" d="M248.43,203.92l-19.57,27.91a6.88,6.88,0,0,0-1.29-.13,6.79,6.79,0,0,0-5,2.23c-10.63-2.67-23.33-1.9-35.14.23a40.37,40.37,0,0,1,61-30.24Z"/><path class="cls-1" d="M265.87,251.26a40.37,40.37,0,0,1-78.65-11.32c11.36-2.17,23.63-3.13,33.6-.74a6.77,6.77,0,0,0,12,3.51Z"/><path class="cls-1" d="M78.1,245a21.77,21.77,0,1,0,21.77,21.77A21.79,21.79,0,0,0,78.1,245Zm0,27a5.24,5.24,0,1,1,5.24-5.23A5.24,5.24,0,0,1,78.1,272Z"/><path class="cls-1" d="M151.64,255c-1.76-9-19.36-31-41.85-43.58C99,205.4,83,199.36,68.16,204.92c-18.88,7.09-31.1,34.47-27.87,51.91.94,5.11,3.59,11.08,10.64,12.44q-.12-1.26-.12-2.55a27.3,27.3,0,1,1,54.59,0c0,.62,0,1.24-.07,1.86,18.32.59,39-1.21,44.93-8.05A6.05,6.05,0,0,0,151.64,255ZM59,232.84c-11.09-3.46,2-23.09,18.85-23.09,17.9,0,36.72,9.65,36.74,18.9C114.65,236.14,68.83,235.89,59,232.84Z"/><path class="cls-2" d="M292,236l-18.63-.09a45.89,45.89,0,0,0-17.28-33.37l9-12.87Z"/><path class="cls-1" d="M267.83,241.45a40.68,40.68,0,0,1-.57,4.45l-17.56-4.54Z"/><path class="cls-3" d="M418.81,238.48A40.39,40.39,0,1,1,362,201.59l11.69,32a6.78,6.78,0,1,0,5.2-1.89l-11.69-32a40.37,40.37,0,0,1,51.59,38.79Z"/><path class="cls-4" d="M234.35,238.48a6.78,6.78,0,0,1-13.53.72q0-.34,0-.72a6.79,6.79,0,0,1,6.78-6.78,6.88,6.88,0,0,1,1.29.13,6.75,6.75,0,0,1,4.52,3.18,6.51,6.51,0,0,1,.39.74A6.75,6.75,0,0,1,234.35,238.48Z"/><path class="cls-4" d="M385.21,238.48a6.77,6.77,0,1,1-6.78-6.78l.48,0A6.77,6.77,0,0,1,385.21,238.48Z"/><path class="cls-4" d="M83.34,266.72a5.24,5.24,0,1,1-5.24-5.24A5.24,5.24,0,0,1,83.34,266.72Z"/><path class="cls-4" d="M114.63,228.65c0,7.49-45.8,7.24-55.59,4.19-11.09-3.46,2-23.09,18.85-23.09C95.79,209.74,114.61,219.4,114.63,228.65Z"/></g></svg>