<svg xmlns="http://www.w3.org/2000/svg" viewBox="0 0 447.32 451.91"><defs><style>.cls-1{fill:#f2f2f2;}.cls-2,.cls-3,.cls-5{fill:none;}.cls-2,.cls-3,.cls-4{stroke:#000;stroke-linejoin:round;}.cls-2,.cls-3,.cls-4,.cls-5{stroke-linecap:round;}.cls-2{stroke-width:5.78px;}.cls-3,.cls-4,.cls-5{stroke-width:6.48px;}.cls-5{stroke:#f6a621;stroke-miterlimit:10;}</style></defs><g id="ÖSSZES"><circle class="cls-1" cx="222.53" cy="223.45" r="217.28"/><path class="cls-2" d="M126.74,87.28c2.7,13.29,11.26,27,32.67,27.44a5.14,5.14,0,0,1,5,4.84c2.33,42.29-15,64.17-8.26,96.29,10.54,49.78,63.14,60.7,77,95.93"/><path class="cls-3" d="M137.78,76.77c12.4.07,21.65-.17,27.47-4.74,9.67-7.61,25-11.91,39-5,25.86,12.69,15.76,35.52,19.07,75.66s41,70.9,60.1,102.88c17.77,29.8,25.58,71.24,22.72,101.23"/><path class="cls-2" d="M196.18,80.38c-7.06,10.15-11.64,16.39-14.56,22.83-4.8,10.58-2.53,35.12,5.71,36.47,12.15,2,34.17-34.54,32.67-56.1"/><path class="cls-4" d="M137.78,76.77s-3.28,9.59-10.69,10.86a58,58,0,0,1-1.38-10.88C130,76.71,134,76.76,137.78,76.77Z"/><path class="cls-3" d="M193.24,235.64c2.44,25.86-4.12,35.95-12.17,60.65-8.59,26.36-19,60.24-19,60.24-5.71-2.65-8.78,1.25-10.3,3.6"/><path class="cls-2" d="M283.76,295.82c-9-16.79-32.59-22-41.27-15.63-12,8.77-18.2,35.07,12.24,75.76"/><path class="cls-3" d="M360.81,282.62C353.75,316.76,321.33,349,281.86,356c-28.64,5-46.76-1.55-56.46-1.21s-11,2.86-15.22,7.05"/><path class="cls-3" d="M239.77,331.5c-16.22.05-22.53-4.57-29.59-2.95-3,.69-5.54,3.44-7.22,6.06"/><path class="cls-3" d="M169,245.18c4.34,14.33-18.17,103.43-18.17,103.43-4.59-3.09-8.48,1.35-9.47,3.09"/><path class="cls-5" d="M170.21,146.21c14.88,4.39,31.6,5.3,46-.49"/></g></svg>