<svg xmlns="http://www.w3.org/2000/svg" viewBox="0 0 447.32 451.91"><defs><style>.cls-1{fill:#f2f2f2;}.cls-2{fill:#5f4796;}.cls-3,.cls-4,.cls-5,.cls-7,.cls-8{fill:none;}.cls-3,.cls-5,.cls-6,.cls-7,.cls-8{stroke:#000;}.cls-3{stroke-miterlimit:10;}.cls-3,.cls-5,.cls-6{stroke-width:5.78px;}.cls-4{stroke:#5f4796;stroke-width:4.62px;}.cls-4,.cls-5,.cls-6,.cls-7,.cls-8{stroke-linecap:round;stroke-linejoin:round;}.cls-7{stroke-width:4.55px;}.cls-8{stroke-width:3.47px;}</style></defs><g id="ÖSSZES"><circle class="cls-1" cx="222.06" cy="225.53" r="217.28"/><circle cx="199.58" cy="78.56" r="5.15"/><circle class="cls-2" cx="186.29" cy="294.33" r="3.51"/><path d="M212.26,67.05a5.15,5.15,0,1,1,0-10.3"/><path d="M225.54,67.05a5.15,5.15,0,1,0,0-10.3"/><circle cx="199.58" cy="91.83" r="5.15"/><circle cx="239.09" cy="83.71" r="5.15"/><circle cx="239.09" cy="96.98" r="5.15"/><line class="cls-3" x1="199.58" y1="78.56" x2="215.41" y2="78.56"/><line class="cls-3" x1="199.58" y1="91.83" x2="215.41" y2="91.83"/><line class="cls-3" x1="223.26" y1="83.71" x2="239.09" y2="83.71"/><line class="cls-3" x1="223.26" y1="96.98" x2="239.09" y2="96.98"/><path class="cls-4" d="M204.83,268.35a4,4,0,0,0-4.34-4.05c-5.71.71-4.26,9.93-3.48,17.74.93,9.27,1.27,16-4.62,17.84-4.47,1.41-7.91-2-7.27-5.9"/><circle class="cls-2" cx="251.94" cy="294.33" r="3.51"/><path class="cls-4" d="M233.4,268.35a4,4,0,0,1,4.34-4.05c5.71.71,4.26,9.93,3.48,17.74-.94,9.27-1.27,16,4.62,17.84,4.47,1.41,7.91-2,7.27-5.9"/><path class="cls-5" d="M227.72,177.94c14.47-.54,50.28,18,35,63-16.13,4.93-20.41,45.09,4.5,48.45,28.66,67.44-14.25,83.72-47.84,84.11h-.32c-33.59-.39-76.5-16.67-47.84-84.11,24.91-3.36,20.64-43.52,4.51-48.45-15.25-45,20.56-63.55,35-63"/><polygon class="cls-6" points="230.08 309.04 208.26 309.04 212.37 371.97 225.94 371.97 230.08 309.04"/><polygon class="cls-6" points="227.38 99.84 210.96 99.84 213.81 70.79 223.84 70.79 227.38 99.84"/><path class="cls-7" d="M227,70.8H211.38l2.28-16a3.46,3.46,0,0,1,3.43-3h3.61a3.46,3.46,0,0,1,3.41,2.86Z"/><polyline class="cls-8" points="213.05 78.56 210.96 309.04 216.42 309.04 216.42 78.56"/><polyline class="cls-8" points="225.23 78.56 227.32 309.04 221.86 309.04 221.86 78.56"/></g></svg>