<svg xmlns="http://www.w3.org/2000/svg" viewBox="0 0 447.32 451.91"><defs><style>.cls-1{fill:none;}.cls-2{fill:#604695;}</style></defs><g id="ÖSSZES"><path class="cls-1" d="M258.7,251.22a40.37,40.37,0,0,0,.57-4.45l-18.13-.09Z"/><path class="cls-1" d="M219,250.59a6.79,6.79,0,0,1-6.75-6.07c-10-2.38-22.24-1.43-33.6.75a40.37,40.37,0,0,0,78.65,11.31l-33-8.55A6.74,6.74,0,0,1,219,250.59Z"/><path class="cls-1" d="M220.3,237.15l19.57-27.91a40.36,40.36,0,0,0-61,30.25c11.8-2.14,24.5-2.91,35.13-.24a6.78,6.78,0,0,1,5-2.22A6.88,6.88,0,0,1,220.3,237.15Z"/><path class="cls-1" d="M101.23,216.76c-10.83-6-26.84-12.07-41.63-6.51-18.87,7.09-31.1,34.46-27.87,51.9.94,5.12,3.59,11.08,10.64,12.44q-.12-1.26-.12-2.55a27.3,27.3,0,1,1,54.59,0c0,.63,0,1.25-.07,1.86,18.32.6,39-1.2,44.93-8a6.1,6.1,0,0,0,1.39-5.52C141.32,251.31,123.72,229.32,101.23,216.76Zm-50.75,21.4c-11.08-3.46,2-23.09,18.85-23.09,17.9,0,36.72,9.65,36.74,18.9C106.09,241.46,60.27,241.21,50.48,238.16Z"/><path class="cls-1" d="M69.54,250.28A21.76,21.76,0,1,0,91.31,272,21.78,21.78,0,0,0,69.54,250.28Zm0,27A5.24,5.24,0,1,1,74.78,272,5.25,5.25,0,0,1,69.54,277.28Z"/><path class="cls-1" d="M244.39,212.43l-19.57,27.9a5.83,5.83,0,0,1,.39.74l34.09.17A40.3,40.3,0,0,0,244.39,212.43Z"/><path class="cls-1" d="M264.82,246.8a46.36,46.36,0,0,1-.75,5.81l18.8,4.87a12.13,12.13,0,0,1,1.35-10.59Z"/><path class="cls-1" d="M369.87,203.42a40.28,40.28,0,0,0-11.21,1.6l11.69,32a6.77,6.77,0,1,1-5.2,1.89l-11.69-32a40.35,40.35,0,1,0,16.41-3.5Z"/><path class="cls-1" d="M283.48,241.36,256.6,195l-9,12.87a45.89,45.89,0,0,1,17.28,33.37Z"/><path d="M369.87,197.89a45.73,45.73,0,0,0-13.11,1.92l-11.06-30.3c4.06-1.31,7.43-.91,9.28,1.19a2.77,2.77,0,0,0,4.15-3.66c-3.9-4.42-10.67-5-18.1-1.63l-2.32,1.07,4.72,12.93-.12-.08L299,242.26a12.21,12.21,0,0,0-4.58-.89c-.26,0-.51,0-.77,0h-3.78l-33.68-58.06h9.2a2.77,2.77,0,0,0,0-5.53H241.87a2.77,2.77,0,0,0,0,5.53h7.95l3.72,6.42-10.49,15a45.88,45.88,0,0,0-69.84,35.91,153.49,153.49,0,0,0-28.74,9.2c-7.27-12.2-23-28.07-40.55-37.88-17-9.49-33-11.86-46.27-6.87-21.81,8.19-35,38.48-31.36,58.09,1.9,10.25,8.13,16.4,17.25,17.17a27.29,27.29,0,0,0,52.28-.92c15.85.59,41.6-.11,50.07-9.94a11.66,11.66,0,0,0,2.62-10.19,22.36,22.36,0,0,0-1.49-4.54,156.18,156.18,0,0,1,26.15-8.32A45.91,45.91,0,0,0,262.68,258l28.59,7.4h0a12.38,12.38,0,0,0,3.13.42,12.21,12.21,0,0,0,9.1-20.35l42.14-59.87,5.88,16.13a45.9,45.9,0,1,0,18.31-3.82ZM69.54,293.8A21.76,21.76,0,1,1,91.31,272,21.78,21.78,0,0,1,69.54,293.8Zm72.16-27.94c-5.9,6.84-26.61,8.64-44.93,8,0-.61.07-1.23.07-1.86a27.3,27.3,0,1,0-54.59,0q0,1.29.12,2.55c-7-1.36-9.7-7.32-10.64-12.44-3.23-17.44,9-44.81,27.87-51.9,14.79-5.56,30.8.47,41.63,6.51,22.49,12.56,40.09,34.55,41.86,43.58A6.1,6.1,0,0,1,141.7,265.86Zm117-14.64-17.56-4.54,18.13.09A40.37,40.37,0,0,1,258.7,251.22Zm-33.49-10.15a6.74,6.74,0,0,1-.91,7l33,8.55a40.37,40.37,0,0,1-78.65-11.31c11.36-2.18,23.63-3.13,33.6-.75,0-.23,0-.47,0-.71a6.78,6.78,0,0,1,1.76-4.56c-10.63-2.67-23.33-1.9-35.13.24a40.36,40.36,0,0,1,61-30.25L220.3,237.15a6.78,6.78,0,0,1,4.52,3.18l19.57-27.9a40.3,40.3,0,0,1,14.91,28.81Zm22.36-33.18,9-12.87,26.88,46.34-18.63-.1A45.89,45.89,0,0,0,247.57,207.89Zm35.3,49.59-18.8-4.87a46.36,46.36,0,0,0,.75-5.81l19.4.09a12.13,12.13,0,0,0-1.35,10.59Zm87,26.71a40.37,40.37,0,0,1-16.41-77.27l11.69,32a6.76,6.76,0,0,1,4.72-1.91l.48,0-11.69-32a40.38,40.38,0,1,1,11.21,79.17Z"/><path class="cls-2" d="M220.3,237.15A6.88,6.88,0,0,0,219,237a6.78,6.78,0,0,0-6.78,6.78c0,.24,0,.48,0,.71a6.77,6.77,0,0,0,12,3.51,6.74,6.74,0,0,0,.91-7,5.83,5.83,0,0,0-.39-.74A6.78,6.78,0,0,0,220.3,237.15Z"/><path class="cls-2" d="M369.87,250.59a6.78,6.78,0,0,0,.48-13.54l-.48,0a6.78,6.78,0,0,0,0,13.56Z"/><circle class="cls-2" cx="69.54" cy="272.04" r="5.24" transform="translate(-171.99 128.85) rotate(-45)"/><path class="cls-2" d="M69.33,215.07c-16.87,0-29.93,19.63-18.85,23.09,9.79,3.05,55.61,3.3,55.59-4.19C106.05,224.72,87.23,215.07,69.33,215.07Z"/></g></svg>