<svg xmlns="http://www.w3.org/2000/svg" viewBox="0 0 447.32 451.91"><defs><style>.cls-1{fill:none;}.cls-2{fill:#604695;}</style></defs><g id="ÖSSZES"><path class="cls-1" d="M238.68,210a50.93,50.93,0,0,1,1.48-11.07,65.38,65.38,0,0,0,1.69-12.23l0-1.34a13.17,13.17,0,1,0-26.33,0,62.37,62.37,0,0,0,1.71,13.57A50.84,50.84,0,0,1,218.68,210c0,7.82-3.5,15.61-7.17,23.86-6.18,13.9-13.18,29.66-8.09,52a6.47,6.47,0,0,0,3.71,4.48,52.74,52.74,0,0,0,43.14,0,6.42,6.42,0,0,0,3.67-4.46c5.1-22.37-1.91-38.13-8.09-52C242.18,225.59,238.72,217.8,238.68,210Zm-14.9,33.78c-5.94,11.52-8.65,28.74-6.31,40.05a2.84,2.84,0,0,1-5.56,1.15c-2.61-12.63.26-31,6.82-43.8a2.84,2.84,0,0,1,5.05,2.6Z"/><path d="M251,231.54c-3.57-8-6.65-15-6.68-21.59a45.52,45.52,0,0,1,1.35-9.88,67.76,67.76,0,0,0,1.83-14.73l0-2.84h-.22a18.84,18.84,0,0,0-37.47,2.84,67.7,67.7,0,0,0,1.84,14.73A46.79,46.79,0,0,1,213,210c0,6.63-3.11,13.56-6.68,21.59-6.21,14-14,31.38-8.45,55.57a12.18,12.18,0,0,0,7,8.43,59.86,59.86,0,0,0,23.91,5.1,58.81,58.81,0,0,0,23.76-5.1,12.15,12.15,0,0,0,6.93-8.39C265,262.93,257.25,245.52,251,231.54Zm2.9,54.34a6.42,6.42,0,0,1-3.67,4.46,52.74,52.74,0,0,1-43.14,0,6.47,6.47,0,0,1-3.71-4.48c-5.09-22.36,1.91-38.12,8.09-52,3.67-8.25,7.14-16,7.17-23.86a50.84,50.84,0,0,0-1.47-11.07,62.37,62.37,0,0,1-1.71-13.57,13.17,13.17,0,1,1,26.33,0l0,1.34a65.38,65.38,0,0,1-1.69,12.23A50.93,50.93,0,0,0,238.68,210c0,7.82,3.5,15.61,7.17,23.86C252,247.75,259,263.51,253.94,285.88Z"/><path class="cls-2" d="M222.55,239.94a2.84,2.84,0,0,0-3.82,1.22c-6.56,12.75-9.43,31.17-6.82,43.8a2.84,2.84,0,0,0,5.56-1.15c-2.34-11.31.37-28.53,6.31-40.05A2.84,2.84,0,0,0,222.55,239.94Z"/></g></svg>