<svg xmlns="http://www.w3.org/2000/svg" viewBox="0 0 447.32 451.91"><defs><style>.cls-1,.cls-6{fill:#1d1d1b;}.cls-2{fill:#5f4796;}.cls-3,.cls-4,.cls-5,.cls-7,.cls-8{fill:none;}.cls-3,.cls-5,.cls-6,.cls-7,.cls-8{stroke:#1d1d1b;}.cls-3{stroke-miterlimit:10;}.cls-3,.cls-5,.cls-6{stroke-width:5.78px;}.cls-4{stroke:#5f4796;stroke-width:4.62px;}.cls-4,.cls-5,.cls-6,.cls-7,.cls-8{stroke-linecap:round;stroke-linejoin:round;}.cls-7{stroke-width:4.55px;}.cls-8{stroke-width:3.47px;}</style></defs><g id="ÖSSZES"><circle class="cls-1" cx="202.41" cy="85.03" r="5.15"/><circle class="cls-2" cx="189.12" cy="300.8" r="3.51"/><path class="cls-1" d="M215.09,73.51a5.15,5.15,0,1,1,0-10.29"/><path class="cls-1" d="M228.38,73.51a5.15,5.15,0,0,0,0-10.29"/><circle class="cls-1" cx="202.41" cy="98.3" r="5.15"/><circle class="cls-1" cx="241.93" cy="90.17" r="5.15"/><circle class="cls-1" cx="241.93" cy="103.44" r="5.15"/><line class="cls-3" x1="202.41" y1="85.03" x2="218.24" y2="85.03"/><line class="cls-3" x1="202.41" y1="98.3" x2="218.24" y2="98.3"/><line class="cls-3" x1="226.09" y1="90.17" x2="241.93" y2="90.17"/><line class="cls-3" x1="226.09" y1="103.44" x2="241.93" y2="103.44"/><path class="cls-4" d="M207.66,274.82a4,4,0,0,0-4.34-4.06c-5.7.71-4.26,9.93-3.47,17.74.93,9.27,1.26,16-4.62,17.85-4.48,1.41-7.91-2-7.28-5.9"/><circle class="cls-2" cx="254.77" cy="300.8" r="3.51"/><path class="cls-4" d="M236.24,274.82a4,4,0,0,1,4.33-4.06c5.71.71,4.27,9.93,3.48,17.74-.93,9.27-1.26,16,4.62,17.85,4.48,1.41,7.91-2,7.28-5.9"/><path class="cls-5" d="M230.55,184.41c14.47-.55,50.28,18,35,63-16.13,4.94-20.4,45.1,4.51,48.45,28.66,67.44-14.25,83.72-47.84,84.12h-.32c-33.59-.4-76.5-16.68-47.84-84.12,24.91-3.35,20.63-43.51,4.5-48.45-15.25-45,20.56-63.55,35-63"/><polygon class="cls-6" points="232.92 315.5 211.09 315.5 215.21 378.43 228.77 378.43 232.92 315.5"/><polygon class="cls-6" points="230.21 106.3 213.8 106.3 216.65 77.25 226.67 77.25 230.21 106.3"/><path class="cls-7" d="M229.79,77.26H214.21l2.29-16a3.46,3.46,0,0,1,3.43-3h3.6a3.46,3.46,0,0,1,3.41,2.86Z"/><polyline class="cls-8" points="215.88 85.03 213.8 315.5 219.25 315.5 219.25 85.03"/><polyline class="cls-8" points="228.07 85.03 230.15 315.5 224.7 315.5 224.7 85.03"/></g></svg>