<svg xmlns="http://www.w3.org/2000/svg" viewBox="0 0 447.32 451.91"><defs><style>.cls-1{fill:#f2f2f2;}.cls-2,.cls-3,.cls-4,.cls-6{fill:none;}.cls-2,.cls-3{stroke:#5f4896;}.cls-2,.cls-3,.cls-4{stroke-linejoin:round;stroke-width:6.1px;}.cls-3{stroke-linecap:round;}.cls-4{stroke:#604695;}.cls-5{fill:#604695;}</style></defs><g id="ÖSSZES"><circle class="cls-1" cx="223.57" cy="219.62" r="217.28"/><path class="cls-2" d="M198.28,227C233.79,239.41,260,212,260,212"/><path class="cls-3" d="M230.26,174.84c5.76,17.78,13.77,19.56,23,18.27"/><path class="cls-4" d="M230.26,174.84c-6.28,13-27.2,10-27.2,10C208.46,207.23,195,211,195,211"/><path class="cls-5" d="M269.64,295.69a.39.39,0,0,0-.06-.11l-6.5.9-45,6.25-8.39,1.17-.08.11c-1.64,2.19-3.33,4.45-5.11,6.75l8.53-1.18,53.19-7.38,6.38-.89C271.63,299.4,270.65,297.52,269.64,295.69Zm-6.5.9-.06-.11-45,6.25a1.25,1.25,0,0,0-.08.12c-1.57,2.18-3.23,4.43-5,6.73l53.19-7.38C265.23,300.29,264.2,298.41,263.14,296.59Z"/><path d="M384.17,355l-66-64.79a3.11,3.11,0,0,0-2.55-.84L282.08,294l-6,.84c.23,2,.42,4,.61,5.94,0,0,0,.09,0,.12l6-.83,32.22-4.46L375.52,355,149.18,388.73l-48.1-63.55,85.43-11.83,6.7-.93a.36.36,0,0,1,0-.09c.63-2.05,1.27-4.16,1.89-6.32l-6.61.91L95.09,319.85a3.08,3.08,0,0,0-2.4,1.86,3,3,0,0,0,.39,3l52.31,69.14a3.09,3.09,0,0,0,2.44,1.2,3.15,3.15,0,0,0,.44,0l234.2-34.88a3.06,3.06,0,0,0,1.7-5.19ZM266.24,302.32l6.38-.89a.45.45,0,0,1-.06-.12c-.93-1.91-1.91-3.79-2.92-5.62l-6.5.9L218,302.85,209.57,304c-1.64,2.19-3.33,4.45-5.11,6.75,0,0-.06.09-.1.13l8.55-1.19Zm-.06-.12c-.95-1.91-2-3.79-3-5.61L218,302.85c-1.57,2.18-3.23,4.43-5,6.73l-.08.12,53.33-7.38A.45.45,0,0,1,266.18,302.2Z"/><path d="M198.33,176.65A25.76,25.76,0,0,1,186.69,174c-14.19-7.1-20.42-26.67-24.53-39.61A3,3,0,1,1,168,132.5c3.81,12,9.56,30.05,21.45,36,5.34,2.68,11.44,2.75,18.66.24a3,3,0,1,1,2,5.76A35.61,35.61,0,0,1,198.33,176.65Z"/><path d="M172.49,112.61c-7.5,3.54-12.07,8.1-14,13.94-2.93,8.88,0,21.34,9,38.07a35.59,35.59,0,0,1,3.93,11.31,20.23,20.23,0,0,1-.42,8.33,12.74,12.74,0,0,1-.61,1.9,19.84,19.84,0,0,1-10.95,10.76,2.8,2.8,0,0,1-1,.17,3,3,0,0,1-1-5.91,13.78,13.78,0,0,0,7.34-7.3,13.33,13.33,0,0,0,.81-5.27,26.52,26.52,0,0,0-3.44-11.12l-.35-.67c-9.52-17.94-12.49-31.76-9.05-42.18,2.48-7.52,8.09-13.25,17.18-17.54a3,3,0,1,1,2.61,5.51Z"/><path d="M248.05,152.38a24.24,24.24,0,0,1-3.3,3,18.61,18.61,0,0,1-5.38,2.84,12.32,12.32,0,0,1-3.81.64,9.53,9.53,0,0,1-1.58-.13c-4.24-.61-7.68-3.64-10.22-9s-4.57-10.45-6.59-15.44c-5.23-13-9.36-23.31-17.33-26.7-5.09-2.16-11.88-1.46-20.76,2.14a3,3,0,1,1-2.29-5.65c10.46-4.24,18.78-4.94,25.43-2.11,10.31,4.38,15.09,16.28,20.61,30.05,2,4.9,4,10,6.44,15.11,1.61,3.39,3.49,5.27,5.58,5.58a5.78,5.78,0,0,0,2.1-.14,13.57,13.57,0,0,0,5.3-3,12.68,12.68,0,0,0,1.26-1.21,3.05,3.05,0,0,1,4.54,4.08Z"/><path d="M155.64,161.62c2.74,4.27,5.4,9.24,6.53,13.76-20.67-19.39-44.64-33.07-55-38.53a3.05,3.05,0,0,1,2.85-5.4A282.66,282.66,0,0,1,155.64,161.62Z"/><path d="M171.42,175.93a20.23,20.23,0,0,1-.42,8.33c-1.76-1.93-3.59-3.82-5.46-5.65a26.52,26.52,0,0,0-3.44-11.12l-.35-.67C165,169.71,168.28,172.75,171.42,175.93Z"/><path d="M200.62,80.53a3,3,0,1,1,5.29-3,759.82,759.82,0,0,1,35.32,69.66,17.4,17.4,0,0,1-5.15,3.35A762.29,762.29,0,0,0,200.62,80.53Z"/><path d="M239.37,158.17c-.79-1.87-1.59-3.76-2.42-5.66a13.57,13.57,0,0,0,5.3-3l2.5,5.82A18.61,18.61,0,0,1,239.37,158.17Z"/><path d="M285.11,339.3a3,3,0,0,1-2.68,3.11,3.57,3.57,0,0,1-.8,0l-.11,0a2.57,2.57,0,0,1-.44-.11.26.26,0,0,1-.12,0l-.38-.17a3,3,0,0,1-1.5-2,.63.63,0,0,1,0-.19s0,0,0,0a153.74,153.74,0,0,0-12.79-37.46.45.45,0,0,1-.06-.12c-.95-1.91-2-3.79-3-5.61l-.06-.11a110.9,110.9,0,0,0-22.58-27.75c-3.33,5.64-11,18.18-22.46,34a1.25,1.25,0,0,0-.08.12c-1.57,2.18-3.23,4.43-5,6.73l-.08.12a478.87,478.87,0,0,1-33.19,39.78,1.62,1.62,0,0,1-.18.2l-.13.11a1.55,1.55,0,0,1-.24.19l0,0a2.3,2.3,0,0,1-.47.25.09.09,0,0,1-.07,0l-.25.1-.29.07-.2,0h-.41a3.08,3.08,0,0,1-1.7-.51c-2.11-1.41-1.28-3.65-.73-5.13l.06-.17c.35-1,.88-2.3,1.54-4,2.29-5.85,6.11-15.57,9.91-27.38a.42.42,0,0,0,0-.1c.66-2.05,1.32-4.17,2-6.33a.44.44,0,0,1,0-.1c7.14-23.81,13.22-54.07,7.7-78.57-3.43-15.23-12.14-29.18-22.95-41.44a30.75,30.75,0,0,0,1-7.87c13,13.83,23.81,30,27.86,48,5.6,24.85,0,54.91-7,79l0,.11c-.62,2.16-1.26,4.27-1.89,6.32a.36.36,0,0,0,0,.09c-2.51,8-5.07,15.21-7.26,21,6.76-7.77,12.91-15.39,18.41-22.56,0,0,.06-.09.1-.13,1.78-2.3,3.47-4.56,5.11-6.75l.08-.11c17.51-23.64,27.24-41.1,27.39-41.37a3.06,3.06,0,0,1,4.63-.85,117.18,117.18,0,0,1,27.91,33.9.39.39,0,0,1,.06.11c1,1.83,2,3.71,2.92,5.62a.45.45,0,0,0,.06.12q2.78,5.73,5.11,11.93c-.29-4.11-.64-8.26-1.05-12.49,0,0,0-.08,0-.12-.19-2-.38-3.95-.61-5.94,0-.05,0-.09,0-.13-4.21-38.51-13.78-81.78-35.57-133.89a17.61,17.61,0,0,0,5.35-2.89,532.78,532.78,0,0,1,24.08,70.5,458.23,458.23,0,0,1,12.16,65.43c0,.05,0,.09,0,.14.22,2,.43,4,.61,5.94,0,0,0,.08,0,.13,1.34,13.6,2,25.86,2.31,36.68C285.06,337.59,285.08,338.45,285.11,339.3Z"/><path d="M164.41,352.32a3,3,0,0,1-.41-6.07l13-1.79a3,3,0,1,1,.83,6l-13,1.79Z"/><path d="M293.79,344.09l-.43,0-11.73-1.66a3.05,3.05,0,0,1,.86-6L294.22,338a3.05,3.05,0,0,1-.43,6.07Z"/><path class="cls-6" d="M157.4,187.62c5.27-2.24,6.09-6.93,4.77-12.24-1.13-4.52-3.79-9.49-6.54-13.76a83.8,83.8,0,0,0-8-10.55"/><path class="cls-6" d="M170,194.18a24.17,24.17,0,0,0,3.31-7.37,31.19,31.19,0,0,0,1-7.87,41.83,41.83,0,0,0-1.12-9.78"/><path class="cls-6" d="M242.86,145.67s-.66.66-1.63,1.51a17.4,17.4,0,0,1-5.15,3.35,2.46,2.46,0,0,1-1.71,0"/><path class="cls-6" d="M249.74,154.08a25.51,25.51,0,0,1-3.91,3.82,17.66,17.66,0,0,1-5.36,2.89,15.32,15.32,0,0,1-5.9.69"/></g></svg>