<svg xmlns="http://www.w3.org/2000/svg" viewBox="0 0 447.32 451.91"><defs><style>.cls-1{fill:#f2f2f2;}.cls-2{fill:#f6a621;}</style></defs><g id="ÖSSZES"><circle class="cls-1" cx="225.15" cy="224.64" r="217.28"/><path class="cls-2" d="M266.35,219.44,265,220.71l-2.66,2.5-2.67,2.52-11.36,10.73L234.18,249.8a3.06,3.06,0,0,0-.6.79c-3.52.2-7.18.3-11,.3-30.38,0-53.6-6.76-62.42-14.49h-.39l.19-.17a14.75,14.75,0,0,1-2.08-2.25,8.59,8.59,0,0,1-1.39-2.82,5.44,5.44,0,0,1-.2-1.48,6.82,6.82,0,0,1,.07-.9c8.2-7.93,34.64-13.73,66-13.73C239.13,215.05,254.45,216.7,266.35,219.44Z"/><path class="cls-2" d="M288.93,229.68a5.83,5.83,0,0,1-.22,1.53,8.6,8.6,0,0,1-1.42,2.84,16,16,0,0,1-2.1,2.24l-.22.19c-6.75,5.85-21.76,11.13-41.89,13.32l14.13-13.34,9.48-8.94,2.57-2.43,2.56-2.41,1.48-1.39c7.37,2.24,12.81,5,15.6,8A1.75,1.75,0,0,1,288.93,229.68Z"/><path d="M160,236.23l-.19.17h.39Z"/><path d="M316.19,176.62a3.05,3.05,0,0,0-4.32-.14l-36.24,34.21c-14.05-5.48-33.85-8.33-53-8.33-35.1,0-72.41,9.58-72.41,27.32h0l0,13.62c-7.49.86-13.28,6-13.31,12.16,0,2.57,1.16,9.52,13.34,12.89l.07,38.68h0c0,17.22,37.31,26.51,72.39,26.51s72.41-9.29,72.41-26.52l-.06-47.77c9.94-2.45,12.81-7.15,13.65-9.84a8.5,8.5,0,0,0-2.2-8.6c-2.66-2.71-6.87-3.9-11.47-3.39v-7.76h0c0-6.58-5.12-12-13.37-16.3l34.39-32.44A3.05,3.05,0,0,0,316.19,176.62ZM143.05,255.51c0-2.52,2.88-5.3,7.21-6V261.9C145.37,260.22,143,257.8,143.05,255.51Zm159.14-10.39a2.36,2.36,0,0,1,.7,2.5c-.53,1.69-2.87,3.83-7.81,5.3v-9.3C298.59,243,301.06,244,302.19,245.12ZM156.41,228.78c1.57-9.79,28.33-20.3,66.22-20.3,19.65,0,36.31,2.82,48,6.91l-4.28,4.05L265,220.71l-2.66,2.5-2.67,2.52-11.36,10.73L234.18,249.8a3.06,3.06,0,0,0-.6.79c-3.52.2-7.18.3-11,.3-30.38,0-53.6-6.76-62.42-14.49h-.39l.19-.17a14.75,14.75,0,0,1-2.08-2.25,8.59,8.59,0,0,1-1.39-2.82,5.44,5.44,0,0,1-.2-1.48A6.82,6.82,0,0,1,156.41,228.78ZM289,307.05c0,9.65-27.24,20.39-66.3,20.39s-66.28-10.75-66.28-20.4l-.06-37.46a76.71,76.71,0,0,0,9.67.65h0a3.06,3.06,0,0,0,0-6.12,66.11,66.11,0,0,1-9.73-.73l0-22.16c12,10.31,39.77,15.78,66.28,15.78S277,251.52,289,241.18L289,307Zm-.14-77.76a1.75,1.75,0,0,1,0,.39,5.83,5.83,0,0,1-.22,1.53,8.6,8.6,0,0,1-1.42,2.84,16,16,0,0,1-2.1,2.24l-.22.19c-6.75,5.85-21.76,11.13-41.89,13.32l14.13-13.34,9.48-8.94,2.57-2.43,2.56-2.41,1.48-1.39,3.59-3.38C284.34,221.37,288.64,225.41,288.9,229.29Z"/><path d="M204.31,191.66a3.07,3.07,0,0,1-2.88-2c-4.26-11.78-.56-19.76,3-27.49,2.38-5.12,4.62-10,4.62-16,0-11.08-11.09-17.24-11.2-17.3a3.06,3.06,0,0,1,2.9-5.39c.59.31,14.42,7.9,14.42,22.69,0,7.41-2.64,13.1-5.19,18.61-3.33,7.2-6.21,13.42-2.8,22.83a3.07,3.07,0,0,1-1.84,3.92A3.12,3.12,0,0,1,204.31,191.66Z"/><path d="M228,163.13a3,3,0,0,1-1.67-.5,3,3,0,0,1-.89-4.23c7.54-11.55,2.8-19.93-2.21-28.81-3-5.35-5.87-10.41-5.79-16,.24-15.23,10.49-19.3,10.93-19.47a3.06,3.06,0,0,1,2.17,5.72c-.24.1-6.81,2.93-7,13.85-.06,3.94,2.4,8.3,5,12.91,5.16,9.13,11.57,20.5,2,35.15A3.06,3.06,0,0,1,228,163.13Z"/><path d="M245.44,183.54a3.06,3.06,0,0,1-3-2.41c-1.95-9,1.28-14,4.13-18.41,2.23-3.45,4.34-6.71,4.34-12.23A24.9,24.9,0,0,0,246.6,136a3.06,3.06,0,1,1,4.77-3.82A30.94,30.94,0,0,1,257,150.49c0,7.33-2.83,11.7-5.32,15.56-2.63,4.06-4.7,7.27-3.29,13.78a3.06,3.06,0,0,1-2.34,3.64A2.94,2.94,0,0,1,245.44,183.54Z"/></g></svg>