<svg id="SMRB_RGB_sötét_lila" data-name="SMRB_RGB_sötét lila" xmlns="http://www.w3.org/2000/svg" viewBox="0 0 792.28 377.87"><defs><style>.cls-1{fill:#3c3c3b;}.cls-2{fill:#604696;}.cls-3{fill:#f6a723;}</style></defs><g id="kimentett_logo"><path class="cls-1" d="M166,101.4c0,8.37-6.33,14.9-17.28,14.9a38.33,38.33,0,0,1-17.41-4.15V102a38.34,38.34,0,0,0,17.41,4.83c4.63,0,6.53-2.24,6.53-4.83,0-2.31-1.56-4.28-4.9-5l-6.59-1.42C136.55,94.05,131,90.24,131,81.54c0-8.51,6.39-14.9,18.16-14.9a35.19,35.19,0,0,1,14,2.92V79.63A36,36,0,0,0,148.79,76c-4.63,0-7.21,2-7.21,4.89,0,2.25,1.43,3.88,4.15,4.49l7.55,1.64C161.58,88.88,166,93.58,166,101.4Z"/><path class="cls-1" d="M171.84,97V67.66H181.9V96.91c0,5.71,3,9.66,8.78,9.66s8.71-3.95,8.71-9.66V67.66h10.06V97c0,11.9-6.73,19.32-18.77,19.32S171.84,108.88,171.84,97Z"/><path class="cls-1" d="M242.88,115.28l-8-16.26H228v16.26H217.92V67.66h19.45c9.86,0,16.39,6.67,16.39,15.58,0,6.73-3.46,12.1-9.25,14.42l9.39,17.62ZM228,90h7.55c4.49,0,7.49-2.38,7.49-6.8s-3.2-6.81-7.49-6.81H228Z"/><path class="cls-1" d="M255.6,67.66H267l12.31,28.23,12.52-28.23H303L280,116.77h-1.56Z"/><path class="cls-1" d="M308.12,67.66H340v9H318V86.91h19.86v9H318V106h22v9.26H308.12Z"/><path class="cls-1" d="M362.81,96.57l-18.1-28.91h11.57L368,87.11l11.7-19.45h11.49l-18,28.91v18.71H362.81Z"/><path class="cls-1" d="M62,135.68H72.79l15,23.88L103,135.68h10.68V183.3h-9.86V151.67L88.09,176.29h-.68L71.84,151.67V183.3H62Z"/><path class="cls-1" d="M121,135.68h31.83v9h-22v10.27h19.86v9H130.88v10.14h22v9.25H121Z"/><path class="cls-1" d="M173.39,145H158.23v-9.32H198.9V145l-15.23.07v38.3l-10.28-.07Z"/><path class="cls-1" d="M204.28,135.68h10.06v18.85h20.48V135.68h10.07V183.3H234.82V164.12H214.34V183.3H204.28Z"/><path class="cls-1" d="M251.21,159.49c0-16.6,12.52-24.83,25-24.83s25,8.23,25,24.83-12.58,24.83-25,24.83S251.21,176.09,251.21,159.49Zm39.12,0c0-9.18-6.26-14.83-14.15-14.83S262,150.31,262,159.49s6.39,14.83,14.15,14.83S290.33,168.74,290.33,159.49Z"/><path class="cls-1" d="M307.54,135.68H326c12.25,0,24.08,8,24.08,23.88s-12,23.74-24.21,23.74h-18.3Zm18.09,38.37c6.6,0,13.54-4.7,13.54-14.49,0-10.41-6.8-14.63-13.4-14.63h-8.16v29.12Z"/><path class="cls-1" d="M389.34,169.42c0,8.37-6.33,14.9-17.28,14.9a38.25,38.25,0,0,1-17.42-4.15V170a38.55,38.55,0,0,0,17.42,4.83c4.62,0,6.53-2.25,6.53-4.83,0-2.32-1.57-4.29-4.9-5l-6.6-1.43c-7.21-1.56-12.79-5.37-12.79-14.08,0-8.5,6.4-14.9,18.17-14.9a35,35,0,0,1,13.94,2.93v10.07a36,36,0,0,0-14.28-3.61c-4.63,0-7.21,2-7.21,4.9,0,2.24,1.42,3.88,4.15,4.49l7.55,1.63C384.92,156.91,389.34,161.6,389.34,169.42Z"/><path class="cls-1" d="M208.63,249.71l-8-16.26h-6.94v16.26H183.67V202.09h19.45c9.86,0,16.39,6.66,16.39,15.58,0,6.73-3.46,12.1-9.25,14.42l9.39,17.62Zm-14.9-25.24h7.55c4.49,0,7.49-2.38,7.49-6.8s-3.2-6.81-7.49-6.81h-7.55Z"/><path class="cls-1" d="M224.34,225.9c0-16.6,12.52-24.83,25-24.83s25,8.23,25,24.83-12.58,24.82-25,24.82S224.34,242.49,224.34,225.9Zm39.12,0c0-9.19-6.26-14.83-14.15-14.83s-14.15,5.64-14.15,14.83,6.39,14.82,14.15,14.82S263.46,235.15,263.46,225.9Z"/><path class="cls-1" d="M279.38,225.9c0-16.6,12.51-24.83,25-24.83s25,8.23,25,24.83-12.58,24.82-25,24.82S279.38,242.49,279.38,225.9Zm39.11,0c0-9.19-6.26-14.83-14.15-14.83s-14.15,5.64-14.15,14.83,6.4,14.82,14.15,14.82S318.49,235.15,318.49,225.9Z"/><path class="cls-1" d="M335.6,202.09h10.81l15,23.88,15.17-23.88H387.3v47.62h-9.87V218.07L361.72,242.7H361l-15.58-24.63v31.64H335.6Z"/><path class="cls-1" d="M402.21,270.43h16.88c9,0,14.2,5.16,14.2,12.46,0,5-2.61,8.51-6.29,10.05,5.09,1.47,7.9,6,7.9,11.12,0,7.91-5.69,13.26-14.8,13.26H402.21Zm15.47,19.63c4.49,0,7.24-2.61,7.24-6.56,0-3.62-2.88-6-7.24-6h-7.5v12.53Zm1.14,20c4.42,0,7.51-2.55,7.51-6.63s-2.62-6.7-7.51-6.7h-8.64v13.33Z"/><path class="cls-1" d="M441.41,300.31V270.43h8.1v29.75c0,6.36,3.69,10.31,9.78,10.31s9.72-3.95,9.72-10.31V270.43h8.1v29.88c0,11.45-7,18-17.82,18S441.41,311.76,441.41,300.31Z"/><path class="cls-1" d="M486.37,270.43h17.22c12.06,0,23,7.91,23,23.52s-11.12,23.37-23.17,23.37H486.37Zm16.88,39.46c7.71,0,14.81-5.09,14.81-15.94,0-11.06-7-16.08-14.67-16.08h-8.91v32Z"/><path class="cls-1" d="M559.75,306.54h-20.7L535,317.32h-8.64l18.49-46.89h9.31l18.49,46.89H564Zm-2.88-7.37-7.57-19.49-7.44,19.49Z"/><path class="cls-1" d="M577.13,270.43H595c9.18,0,15.34,6.77,15.34,15.21s-6.16,15.14-15.34,15.14h-9.71v16.54h-8.11Zm16.28,23.11c5.09,0,8.31-3.21,8.31-7.9s-3.22-8-8.31-8h-8.17v15.87Z"/><path class="cls-1" d="M615.33,270.43h29.95v7.37h-22v12.33h19.9v7.37H623.3v12.39h22v7.43H615.33Z"/><path class="cls-1" d="M683.93,304.13c0,7.7-5.83,14.2-16.34,14.2a34.59,34.59,0,0,1-16.48-4.09v-8.17a35,35,0,0,0,16.48,4.69c5.56,0,7.77-2.81,7.77-6.37,0-2.74-1.94-5.29-6-6.16l-6.64-1.47c-7-1.54-12-5.36-12-13.4,0-7.7,6.1-13.93,17.22-13.93a33.7,33.7,0,0,1,13.33,2.81v8.17a31.74,31.74,0,0,0-13.46-3.48c-5.36,0-8.65,2.41-8.65,6.16,0,3,1.75,4.89,5.09,5.63l7.31,1.61C679.64,292.07,683.93,296.83,683.93,304.13Z"/><path class="cls-1" d="M702.08,277.94H686.81v-7.51h38.72v7.51H710.25v39.38h-8.17Z"/><rect class="cls-2" x="402.28" y="67.58" width="251.58" height="50.83" transform="translate(1056.13 185.98) rotate(-180)"/><rect class="cls-3" x="402.56" y="135.15" width="325.77" height="50.83" transform="translate(1130.88 321.14) rotate(-180)"/><rect class="cls-2" x="402.38" y="202.73" width="202.44" height="50.83" transform="translate(1007.21 456.29) rotate(-180)"/><g id="x_logo" data-name="x logo"><path class="cls-1" d="M339.69,287.77c-7.3,10.65-5.54,22.47,5.54,26.57s25.95-8.41,28.74-11.56c2.4-2.73,12.28-15.17,2.4-25.21-6.18-6.27-13.44-3.45-13.14-5.66,2-2.16,17.87,1.34,22.85,11.68,3.47,7.23-1.54,18.12-9.8,25.4-10.23,9-30.2,13.95-41.22,4.86-10.42-8.58-5.65-21.23-1.27-27.65,6.61-9.67,23.92-14.73,29.42-11C364.09,277.41,349.64,273.25,339.69,287.77Z"/><path class="cls-1" d="M349.3,282.71c4.24,1.33,11.52,14,15.19,20.57s11.92,20.23,10.72,21.61-2.77.54-3.85-1.14c-.59-.91-10.48-17.79-13.36-22.22-3.25-5-11.46-16.31-11.32-18C346.73,282.87,347.36,282.58,349.3,282.71Z"/><path class="cls-1" d="M387,263.57c-4.77.81-18.49,18.8-23.87,25.7s-18.72,24.83-18.88,26,2.65,2.17,3.85.56,19-23.66,21.67-27.05c4.46-5.62,21.37-22.76,20.62-24.43C390.08,263.64,388.92,263.25,387,263.57Z"/></g></g></svg>